<?xml version="1.0" encoding="UTF-8"?>
<svg xmlns="http://www.w3.org/2000/svg" xmlns:xlink="http://www.w3.org/1999/xlink" width="45pt" height="45pt" viewBox="0 0 45 45" version="1.1">
<g id="surface1">
<path style=" stroke:none;fill-rule:nonzero;fill:rgb(90.980392%,76.078431%,84.705882%);fill-opacity:1;" d="M 37.367188 39.5 C 37.546875 38.464844 37.644531 37.398438 37.644531 36.304688 C 37.644531 34.347656 37.34375 32.476562 36.789062 30.746094 C 36.066406 28.480469 35.769531 26.097656 36 23.726562 C 36.039062 23.320312 36.058594 22.910156 36.054688 22.492188 C 36.035156 20.039062 35.257812 17.757812 33.945312 15.871094 C 34.160156 14.460938 34.761719 9.726562 33.332031 9.042969 C 32.265625 8.53125 30.152344 10.304688 28.746094 11.675781 C 27.40625 11.121094 25.945312 10.804688 24.417969 10.78125 C 22.589844 10.757812 20.859375 11.152344 19.304688 11.867188 C 17.90625 10.476562 15.636719 8.507812 14.519531 9.042969 C 12.839844 9.847656 13.972656 16.265625 13.972656 16.265625 L 14.429688 16.046875 C 13.183594 17.914062 12.457031 20.164062 12.457031 22.582031 C 12.457031 22.894531 12.46875 23.203125 12.492188 23.511719 C 12.675781 25.863281 12.40625 28.230469 11.648438 30.464844 C 11.035156 32.273438 10.699219 34.242188 10.699219 36.304688 C 10.699219 37.53125 10.820312 38.722656 11.042969 39.863281 C 9.296875 39.84375 7.882812 38.414062 7.882812 36.664062 L 7.882812 34.496094 C 7.882812 33.320312 6.933594 32.367188 5.757812 32.367188 C 4.585938 32.367188 3.632812 33.320312 3.632812 34.496094 L 3.632812 36.664062 C 3.632812 40.773438 6.976562 44.117188 11.085938 44.117188 C 11.113281 44.117188 11.144531 44.117188 11.171875 44.117188 L 12.429688 44.066406 C 12.433594 44.074219 12.4375 44.078125 12.441406 44.089844 L 35.902344 44.089844 C 35.910156 44.070312 35.917969 44.050781 35.929688 44.035156 L 35.929688 44.078125 C 37.601562 44.078125 38.957031 42.988281 38.957031 41.640625 C 38.957031 40.714844 38.316406 39.910156 37.367188 39.5 Z M 37.367188 39.5 "/>
<path style=" stroke:none;fill-rule:nonzero;fill:rgb(84.313725%,53.72549%,72.54902%);fill-opacity:1;" d="M 25.542969 21.246094 C 25.542969 22.070312 24.929688 22.734375 24.171875 22.734375 C 23.410156 22.734375 22.800781 22.070312 22.800781 21.246094 L 24.15625 20.152344 Z M 25.542969 21.246094 "/>
<path style=" stroke:none;fill-rule:nonzero;fill:rgb(82.745098%,57.254902%,84.705882%);fill-opacity:1;" d="M 37.367188 39.5 C 37.546875 38.464844 37.644531 37.398438 37.644531 36.304688 C 37.644531 34.347656 37.34375 32.476562 36.789062 30.746094 C 36.054688 28.449219 35.796875 26.03125 36.007812 23.625 C 36.039062 23.253906 36.058594 22.875 36.054688 22.492188 C 36.035156 20.039062 35.257812 17.757812 33.945312 15.871094 C 34.160156 14.460938 34.761719 9.726562 33.332031 9.042969 C 32.769531 8.773438 31.914062 9.140625 31.023438 9.75 C 31.53125 11.164062 31.164062 14.050781 31.011719 15.050781 C 32.160156 16.714844 32.839844 18.726562 32.855469 20.886719 C 32.855469 21.253906 32.839844 21.617188 32.808594 21.976562 C 32.609375 24.066406 32.863281 26.167969 33.496094 28.164062 C 33.980469 29.6875 34.246094 31.304688 34.375 33.023438 C 34.449219 33.972656 34.386719 35.539062 34.335938 36.457031 C 34.289062 37.378906 33.671875 39.910156 31.585938 39.910156 L 16.542969 39.921875 C 13.578125 39.921875 11.082031 37.683594 10.78125 34.734375 C 10.78125 34.699219 10.777344 34.664062 10.773438 34.632812 C 10.726562 35.179688 10.699219 35.738281 10.699219 36.304688 C 10.699219 39.132812 11.332031 41.789062 12.441406 44.089844 L 35.902344 44.089844 C 35.910156 44.070312 35.917969 44.050781 35.929688 44.035156 L 35.929688 44.078125 C 37.601562 44.078125 38.957031 42.988281 38.957031 41.640625 C 38.957031 40.714844 38.316406 39.910156 37.367188 39.5 Z M 37.367188 39.5 "/>
<path style=" stroke:none;fill-rule:nonzero;fill:rgb(96.470588%,87.843137%,43.137255%);fill-opacity:1;" d="M 22.023438 13.207031 C 22.023438 13.175781 22.023438 13.144531 22.03125 13.113281 C 21.96875 11.949219 22.226562 10.90625 22.96875 10.050781 C 22.867188 8.746094 23.125 7.699219 23.890625 7.023438 C 24.179688 5.542969 24.6875 3.945312 25.347656 2.269531 C 25.425781 2.011719 25.800781 2.058594 25.816406 2.328125 C 26.046875 3.761719 26.175781 5.101562 26.015625 6.183594 C 26.445312 7.007812 26.527344 7.871094 26.152344 8.789062 C 26.511719 9.632812 26.609375 10.53125 26.292969 11.515625 C 26.796875 12.390625 26.558594 13.253906 26.484375 13.65625 C 26.132812 15.023438 22.050781 14.539062 22.023438 13.207031 Z M 22.023438 13.207031 "/>
<path style=" stroke:none;fill-rule:nonzero;fill:rgb(86.666667%,65.882353%,41.568627%);fill-opacity:1;" d="M 22.023438 12.605469 C 22.023438 12.578125 22.023438 12.546875 22.03125 12.515625 C 21.984375 11.683594 22.105469 10.921875 22.441406 10.238281 C 22.421875 10.457031 22.421875 10.679688 22.429688 10.910156 C 22.429688 10.933594 22.429688 10.960938 22.429688 10.984375 C 22.445312 12.125 26.039062 12.527344 26.347656 11.359375 C 26.363281 11.292969 26.382812 11.210938 26.398438 11.117188 C 26.761719 11.921875 26.554688 12.679688 26.484375 13.054688 C 26.132812 14.421875 22.050781 13.9375 22.023438 12.605469 Z M 22.023438 12.605469 "/>
<path style=" stroke:none;fill-rule:nonzero;fill:rgb(91.372549%,76.470588%,85.098039%);fill-opacity:1;" d="M 4.855469 0.558594 L 5.613281 2.691406 C 5.648438 2.78125 5.710938 2.855469 5.792969 2.890625 L 7.6875 3.746094 C 7.957031 3.863281 7.957031 4.292969 7.6875 4.414062 L 5.792969 5.269531 C 5.710938 5.304688 5.648438 5.375 5.613281 5.464844 L 4.855469 7.601562 C 4.75 7.902344 4.371094 7.902344 4.261719 7.601562 L 3.503906 5.464844 C 3.472656 5.375 3.410156 5.304688 3.324219 5.269531 L 1.429688 4.414062 C 1.164062 4.292969 1.164062 3.863281 1.429688 3.746094 L 3.324219 2.890625 C 3.410156 2.855469 3.472656 2.78125 3.503906 2.691406 L 4.261719 0.558594 C 4.371094 0.253906 4.75 0.253906 4.855469 0.558594 Z M 4.855469 0.558594 "/>
<path style=" stroke:none;fill-rule:nonzero;fill:rgb(91.372549%,76.470588%,85.098039%);fill-opacity:1;" d="M 41.519531 3.335938 L 42.082031 4.917969 C 42.109375 4.988281 42.15625 5.039062 42.214844 5.066406 L 43.621094 5.703125 C 43.820312 5.789062 43.820312 6.109375 43.621094 6.195312 L 42.214844 6.832031 C 42.15625 6.859375 42.109375 6.910156 42.082031 6.980469 L 41.519531 8.5625 C 41.441406 8.785156 41.160156 8.785156 41.082031 8.5625 L 40.519531 6.980469 C 40.492188 6.910156 40.445312 6.859375 40.386719 6.832031 L 38.980469 6.195312 C 38.78125 6.109375 38.78125 5.789062 38.980469 5.703125 L 40.386719 5.066406 C 40.445312 5.039062 40.492188 4.988281 40.519531 4.917969 L 41.082031 3.335938 C 41.160156 3.113281 41.441406 3.113281 41.519531 3.335938 Z M 41.519531 3.335938 "/>
<path style=" stroke:none;fill-rule:nonzero;fill:rgb(84.705882%,54.117647%,72.941176%);fill-opacity:1;" d="M 18.113281 2.847656 C 17.722656 2.785156 17.355469 3.046875 17.292969 3.4375 C 17.230469 3.828125 17.496094 4.195312 17.886719 4.257812 C 18.273438 4.320312 18.640625 4.058594 18.703125 3.667969 C 18.765625 3.28125 18.503906 2.910156 18.113281 2.847656 Z M 18.113281 2.847656 "/>
<path style=" stroke:none;fill-rule:nonzero;fill:rgb(84.705882%,54.117647%,72.941176%);fill-opacity:1;" d="M 8.695312 13.945312 C 8.613281 13.261719 7.988281 12.773438 7.300781 12.855469 C 6.613281 12.9375 6.125 13.566406 6.207031 14.253906 C 6.292969 14.9375 6.917969 15.425781 7.605469 15.34375 C 8.292969 15.261719 8.78125 14.632812 8.695312 13.945312 Z M 8.695312 13.945312 "/>
<path style=" stroke:none;fill-rule:nonzero;fill:rgb(23.529412%,7.058824%,17.254902%);fill-opacity:1;" d="M 18.898438 19.1875 C 18.3125 19.050781 17.726562 19.414062 17.589844 19.996094 C 17.449219 20.582031 17.8125 21.167969 18.398438 21.308594 C 18.980469 21.445312 19.570312 21.082031 19.707031 20.496094 C 19.847656 19.914062 19.484375 19.328125 18.898438 19.1875 Z M 18.898438 19.1875 "/>
<path style=" stroke:none;fill-rule:nonzero;fill:rgb(23.529412%,7.058824%,17.254902%);fill-opacity:1;" d="M 30.460938 19.46875 C 30.035156 19.042969 29.34375 19.042969 28.917969 19.46875 C 28.492188 19.894531 28.492188 20.582031 28.917969 21.007812 C 29.34375 21.433594 30.035156 21.433594 30.460938 21.007812 C 30.882812 20.582031 30.882812 19.894531 30.460938 19.46875 Z M 30.460938 19.46875 "/>
<path style=" stroke:none;fill-rule:nonzero;fill:rgb(23.529412%,7.058824%,17.254902%);fill-opacity:1;" d="M 26.554688 21.050781 C 26.554688 20.761719 26.316406 20.523438 26.023438 20.523438 C 25.300781 20.523438 24.714844 19.933594 24.714844 19.210938 C 24.714844 18.917969 24.476562 18.683594 24.183594 18.683594 C 24.179688 18.683594 24.175781 18.683594 24.171875 18.683594 C 24.167969 18.683594 24.164062 18.683594 24.160156 18.683594 C 23.867188 18.683594 23.628906 18.917969 23.628906 19.210938 C 23.628906 19.933594 23.042969 20.523438 22.320312 20.523438 C 22.023438 20.523438 21.789062 20.761719 21.789062 21.050781 C 21.789062 21.339844 22.015625 21.570312 22.296875 21.582031 C 22.449219 22.535156 23.230469 23.265625 24.171875 23.265625 C 25.113281 23.265625 25.894531 22.535156 26.046875 21.582031 C 26.328125 21.570312 26.554688 21.339844 26.554688 21.050781 Z M 24.171875 22.207031 C 23.738281 22.207031 23.382812 21.832031 23.335938 21.355469 C 23.660156 21.199219 23.949219 20.96875 24.171875 20.6875 C 24.394531 20.96875 24.679688 21.199219 25.007812 21.355469 C 24.960938 21.832031 24.605469 22.207031 24.171875 22.207031 Z M 24.171875 22.207031 "/>
<path style=" stroke:none;fill-rule:nonzero;fill:rgb(23.529412%,7.058824%,17.254902%);fill-opacity:1;" d="M 20.21875 35.597656 C 19.105469 35.597656 17.957031 34.84375 17.363281 33.613281 C 17.238281 33.347656 17.347656 33.03125 17.609375 32.902344 C 17.875 32.777344 18.191406 32.886719 18.316406 33.152344 C 18.84375 34.246094 19.945312 34.808594 20.773438 34.410156 C 21.597656 34.015625 21.839844 32.800781 21.3125 31.707031 C 21.1875 31.441406 21.296875 31.128906 21.5625 31 C 21.824219 30.875 22.144531 30.984375 22.269531 31.246094 C 23.050781 32.867188 22.582031 34.714844 21.230469 35.363281 C 20.910156 35.523438 20.5625 35.597656 20.21875 35.597656 Z M 20.21875 35.597656 "/>
<path style=" stroke:none;fill-rule:nonzero;fill:rgb(23.529412%,7.058824%,17.254902%);fill-opacity:1;" d="M 31.347656 34.726562 C 30.960938 34.726562 30.5625 34.632812 30.171875 34.449219 C 29.464844 34.109375 28.875 33.503906 28.507812 32.738281 C 28.378906 32.476562 28.492188 32.160156 28.753906 32.03125 C 29.019531 31.90625 29.332031 32.015625 29.460938 32.277344 C 29.722656 32.828125 30.136719 33.257812 30.628906 33.492188 C 31.078125 33.707031 31.535156 33.722656 31.914062 33.539062 C 32.292969 33.355469 32.566406 32.988281 32.679688 32.503906 C 32.800781 31.976562 32.722656 31.382812 32.457031 30.832031 C 32.328125 30.570312 32.441406 30.253906 32.703125 30.128906 C 32.96875 30 33.28125 30.109375 33.414062 30.375 C 33.78125 31.140625 33.886719 31.980469 33.707031 32.742188 C 33.523438 33.546875 33.050781 34.167969 32.375 34.496094 C 32.050781 34.648438 31.707031 34.726562 31.347656 34.726562 Z M 31.347656 34.726562 "/>
<path style=" stroke:none;fill-rule:nonzero;fill:rgb(100%,100%,100%);fill-opacity:1;" d="M 14.964844 30.859375 C 14.84375 30.859375 14.726562 30.832031 14.613281 30.785156 C 14.164062 30.589844 13.957031 30.070312 14.152344 29.625 C 14.308594 29.269531 14.476562 28.917969 14.660156 28.582031 C 14.890625 28.152344 15.425781 27.992188 15.851562 28.222656 C 16.28125 28.453125 16.441406 28.988281 16.210938 29.417969 C 16.054688 29.710938 15.90625 30.015625 15.773438 30.324219 C 15.628906 30.65625 15.304688 30.859375 14.964844 30.859375 Z M 14.964844 30.859375 "/>
<path style=" stroke:none;fill-rule:nonzero;fill:rgb(100%,100%,100%);fill-opacity:1;" d="M 13.789062 38.007812 C 13.34375 38.007812 12.957031 37.667969 12.914062 37.210938 C 12.769531 35.714844 12.875 34.144531 13.230469 32.550781 C 13.335938 32.074219 13.808594 31.773438 14.28125 31.878906 C 14.757812 31.984375 15.058594 32.457031 14.953125 32.929688 C 14.640625 34.347656 14.542969 35.726562 14.667969 37.039062 C 14.714844 37.523438 14.363281 37.957031 13.875 38.003906 C 13.847656 38.007812 13.820312 38.007812 13.789062 38.007812 Z M 13.789062 38.007812 "/>
<path style=" stroke:none;fill-rule:nonzero;fill:rgb(23.529412%,7.058824%,17.254902%);fill-opacity:1;" d="M 38.335938 39.027344 C 38.460938 38.132812 38.527344 37.21875 38.527344 36.304688 C 38.527344 34.300781 38.222656 32.339844 37.628906 30.480469 C 36.917969 28.253906 36.664062 26.011719 36.878906 23.8125 C 36.917969 23.375 36.9375 22.929688 36.9375 22.484375 C 36.917969 20.050781 36.203125 17.699219 34.867188 15.660156 C 34.984375 14.8125 35.136719 13.472656 35.136719 12.183594 C 35.132812 9.960938 34.683594 8.710938 33.714844 8.246094 C 32.96875 7.886719 31.625 7.765625 28.542969 10.652344 C 28.222656 10.535156 27.902344 10.433594 27.578125 10.347656 C 27.640625 9.625 27.546875 8.910156 27.296875 8.203125 C 27.617188 7.203125 27.554688 6.195312 27.113281 5.207031 C 27.230469 4.140625 27.152344 2.832031 26.863281 1.023438 C 26.808594 0.496094 26.398438 0.0742188 25.863281 0.0078125 C 25.328125 -0.0585938 24.820312 0.257812 24.644531 0.765625 C 23.902344 2.660156 23.382812 4.320312 23.070312 5.835938 C 22.289062 6.65625 21.917969 7.820312 21.96875 9.308594 C 21.753906 9.589844 21.578125 9.894531 21.429688 10.21875 C 20.773438 10.367188 20.125 10.570312 19.496094 10.824219 C 16.289062 7.765625 14.90625 7.878906 14.140625 8.246094 C 13.0625 8.761719 12.617188 10.273438 12.734375 12.992188 C 12.808594 14.738281 13.09375 16.351562 13.105469 16.417969 C 13.105469 16.425781 13.105469 16.425781 13.105469 16.433594 L 13.121094 16.507812 C 12.105469 18.363281 11.574219 20.457031 11.574219 22.582031 C 11.574219 22.914062 11.585938 23.25 11.613281 23.578125 C 11.792969 25.863281 11.523438 28.085938 10.8125 30.183594 C 10.152344 32.132812 9.816406 34.191406 9.816406 36.304688 C 9.816406 37.105469 9.867188 37.902344 9.964844 38.6875 C 9.253906 38.292969 8.765625 37.53125 8.765625 36.664062 L 8.765625 34.496094 C 8.765625 32.835938 7.414062 31.488281 5.757812 31.488281 C 4.097656 31.488281 2.75 32.835938 2.75 34.496094 L 2.75 36.664062 C 2.75 41.257812 6.488281 45 11.085938 45 C 11.125 45 36 44.964844 36.050781 44.957031 C 38.148438 44.902344 39.84375 43.4375 39.84375 41.640625 C 39.84375 40.582031 39.25 39.636719 38.335938 39.027344 Z M 4.515625 36.664062 L 4.515625 36.191406 L 7 36.191406 L 7 36.664062 C 7 37.03125 7.050781 37.386719 7.144531 37.726562 L 4.601562 37.726562 C 4.546875 37.382812 4.515625 37.027344 4.515625 36.664062 Z M 5.757812 33.253906 C 6.445312 33.253906 7 33.808594 7 34.496094 L 7 35.132812 L 4.515625 35.132812 L 4.515625 34.496094 C 4.515625 33.808594 5.074219 33.253906 5.757812 33.253906 Z M 11.085938 43.234375 C 8.203125 43.234375 5.753906 41.371094 4.867188 38.785156 L 7.601562 38.785156 C 8.191406 39.75 9.171875 40.453125 10.316406 40.675781 C 10.519531 41.550781 10.785156 42.40625 11.109375 43.234375 C 11.101562 43.234375 11.09375 43.234375 11.085938 43.234375 Z M 25.902344 12.007812 C 26.035156 12.464844 25.945312 12.90625 25.875 13.242188 C 25.871094 13.269531 25.867188 13.289062 25.863281 13.308594 C 25.769531 13.402344 25.300781 13.605469 24.421875 13.546875 C 23.742188 13.5 23.246094 13.328125 22.964844 13.171875 Z M 25.398438 3.914062 C 25.410156 4.375 25.390625 4.824219 25.335938 5.226562 C 25.335938 5.230469 25.335938 5.234375 25.332031 5.238281 C 25.332031 5.25 25.328125 5.265625 25.328125 5.277344 L 24.96875 5.4375 C 25.089844 4.949219 25.234375 4.445312 25.398438 3.914062 Z M 24.464844 6.941406 C 24.523438 6.882812 24.582031 6.820312 24.625 6.75 L 25.640625 6.300781 C 25.792969 6.824219 25.761719 7.339844 25.539062 7.878906 C 25.519531 7.921875 25.507812 7.964844 25.496094 8.011719 L 23.734375 8.785156 C 23.773438 7.945312 24.011719 7.335938 24.464844 6.941406 Z M 23.53125 10.171875 C 23.585938 10.113281 23.628906 10.042969 23.660156 9.972656 L 25.722656 9.070312 C 25.886719 9.6875 25.871094 10.300781 25.667969 10.929688 C 25.667969 10.941406 25.664062 10.953125 25.660156 10.96875 L 22.734375 12.125 C 22.808594 11.351562 23.070312 10.707031 23.53125 10.171875 Z M 35.929688 43.191406 C 35.882812 43.191406 35.839844 43.199219 35.796875 43.203125 L 25.558594 43.203125 C 25.855469 42.738281 26.019531 42.207031 26.019531 41.640625 C 26.019531 39.8125 24.261719 38.324219 22.105469 38.324219 C 21.617188 38.324219 21.222656 38.71875 21.222656 39.203125 C 21.222656 39.695312 21.617188 40.089844 22.105469 40.089844 C 23.273438 40.089844 24.253906 40.800781 24.253906 41.640625 C 24.253906 42.484375 23.273438 43.195312 22.105469 43.195312 C 22.0625 43.195312 22.019531 43.199219 21.976562 43.203125 L 13.003906 43.203125 C 12.074219 41.082031 11.582031 38.710938 11.582031 36.304688 C 11.582031 34.382812 11.882812 32.515625 12.484375 30.746094 C 13.273438 28.425781 13.566406 25.96875 13.375 23.441406 C 13.351562 23.15625 13.335938 22.867188 13.335938 22.582031 C 13.335938 20.65625 13.847656 18.757812 14.8125 17.101562 C 14.917969 16.917969 14.957031 16.703125 14.914062 16.492188 L 14.839844 16.109375 C 14.824219 16.007812 14.574219 14.546875 14.5 13.003906 C 14.371094 10.265625 14.898438 9.839844 14.898438 9.839844 C 15.113281 9.769531 16.273438 10.105469 18.683594 12.496094 C 18.945312 12.753906 19.339844 12.824219 19.675781 12.671875 C 20.097656 12.476562 20.523438 12.308594 20.960938 12.171875 C 20.945312 12.421875 20.941406 12.675781 20.953125 12.9375 C 20.953125 12.980469 20.949219 13.023438 20.953125 13.070312 C 20.976562 14.199219 22.171875 15.066406 24 15.277344 C 24.257812 15.308594 24.507812 15.324219 24.746094 15.324219 C 26.242188 15.324219 27.320312 14.746094 27.570312 13.761719 C 27.582031 13.707031 27.59375 13.660156 27.601562 13.601562 C 27.667969 13.300781 27.769531 12.808594 27.726562 12.234375 C 27.953125 12.3125 28.183594 12.398438 28.40625 12.492188 C 28.730469 12.625 29.109375 12.554688 29.359375 12.308594 C 31.648438 10.082031 32.75 9.773438 32.949219 9.835938 C 32.949219 9.839844 33.382812 10.179688 33.371094 12.28125 C 33.363281 13.625 33.179688 15.023438 33.070312 15.738281 C 33.039062 15.960938 33.089844 16.1875 33.21875 16.375 C 34.480469 18.183594 35.152344 20.304688 35.171875 22.5 C 35.171875 22.882812 35.15625 23.265625 35.121094 23.644531 C 34.882812 26.082031 35.164062 28.5625 35.949219 31.015625 C 36.488281 32.707031 36.761719 34.484375 36.761719 36.304688 C 36.761719 37 36.722656 37.695312 36.640625 38.378906 C 36.410156 38.34375 36.167969 38.324219 35.929688 38.324219 C 35.4375 38.324219 35.042969 38.71875 35.042969 39.207031 C 35.042969 39.695312 35.4375 40.089844 35.929688 40.089844 C 37.09375 40.089844 38.074219 40.800781 38.074219 41.640625 C 38.074219 42.484375 37.09375 43.191406 35.929688 43.191406 Z M 35.929688 43.191406 "/>
</g>
</svg>
